<mxfile host="app.diagrams.net" modified="2022-02-20T15:37:33.158Z" agent="5.0 (Windows NT 10.0; Win64; x64) AppleWebKit/537.36 (KHTML, like Gecko) Chrome/98.0.4758.102 Safari/537.36" etag="dyxjnGe606dHlEuupG5y" version="15.2.9" type="github">
  <diagram id="GKAAtC38dynGeolD156G" name="Page-1">
    <mxGraphModel dx="652" dy="390" grid="1" gridSize="10" guides="1" tooltips="1" connect="1" arrows="1" fold="1" page="1" pageScale="1" pageWidth="827" pageHeight="1169" math="0" shadow="0">
      <root>
        <mxCell id="0" />
        <mxCell id="1" parent="0" />
        <mxCell id="MURvN9gade4UZ9gh5l-B-1" value="" style="rounded=0;whiteSpace=wrap;html=1;" vertex="1" parent="1">
          <mxGeometry x="360" y="180" width="150" height="110" as="geometry" />
        </mxCell>
        <mxCell id="MURvN9gade4UZ9gh5l-B-2" value="&lt;font style=&quot;font-size: 17px&quot;&gt;Server&lt;/font&gt;" style="text;html=1;strokeColor=none;fillColor=none;align=center;verticalAlign=middle;whiteSpace=wrap;rounded=0;" vertex="1" parent="1">
          <mxGeometry x="374" y="190" width="40" height="20" as="geometry" />
        </mxCell>
        <mxCell id="MURvN9gade4UZ9gh5l-B-4" value="" style="rounded=0;whiteSpace=wrap;html=1;" vertex="1" parent="1">
          <mxGeometry x="380" y="220" width="120" height="60" as="geometry" />
        </mxCell>
        <mxCell id="MURvN9gade4UZ9gh5l-B-5" value="&lt;font style=&quot;font-size: 17px&quot;&gt;Application&lt;br&gt;Container&lt;/font&gt;" style="text;html=1;strokeColor=none;fillColor=none;align=center;verticalAlign=middle;whiteSpace=wrap;rounded=0;" vertex="1" parent="1">
          <mxGeometry x="420" y="240" width="40" height="20" as="geometry" />
        </mxCell>
        <mxCell id="MURvN9gade4UZ9gh5l-B-9" style="edgeStyle=orthogonalEdgeStyle;rounded=0;orthogonalLoop=1;jettySize=auto;html=1;entryX=0;entryY=0.5;entryDx=0;entryDy=0;" edge="1" parent="1" source="MURvN9gade4UZ9gh5l-B-6" target="MURvN9gade4UZ9gh5l-B-1">
          <mxGeometry relative="1" as="geometry" />
        </mxCell>
        <mxCell id="MURvN9gade4UZ9gh5l-B-6" value="" style="rounded=0;whiteSpace=wrap;html=1;" vertex="1" parent="1">
          <mxGeometry x="210" y="205" width="90" height="60" as="geometry" />
        </mxCell>
        <mxCell id="MURvN9gade4UZ9gh5l-B-7" value="&lt;font style=&quot;font-size: 17px&quot;&gt;Client&lt;/font&gt;" style="text;html=1;strokeColor=none;fillColor=none;align=center;verticalAlign=middle;whiteSpace=wrap;rounded=0;" vertex="1" parent="1">
          <mxGeometry x="235" y="225" width="40" height="20" as="geometry" />
        </mxCell>
        <mxCell id="MURvN9gade4UZ9gh5l-B-10" value="Request" style="text;html=1;strokeColor=none;fillColor=none;align=center;verticalAlign=middle;whiteSpace=wrap;rounded=0;" vertex="1" parent="1">
          <mxGeometry x="310" y="245" width="40" height="20" as="geometry" />
        </mxCell>
      </root>
    </mxGraphModel>
  </diagram>
</mxfile>
